<?xml version="1.0" encoding="UTF-8"?>
<!DOCTYPE svg PUBLIC "-//W3C//DTD SVG 1.1//EN" "http://www.w3.org/Graphics/SVG/1.1/DTD/svg11.dtd">
<svg xmlns="http://www.w3.org/2000/svg" version="1.1" width="1080px" height="1080px" style="shape-rendering:geometricPrecision; text-rendering:geometricPrecision; image-rendering:optimizeQuality; fill-rule:evenodd; clip-rule:evenodd" xmlns:xlink="http://www.w3.org/1999/xlink">
<g><path style="opacity:0.991" fill="#0d326c" d="M 528.5,15.5 C 671.435,15.0201 795.101,62.8535 899.5,159C 1021.3,279.215 1074.8,425.048 1060,596.5C 1039.63,754.345 965.131,879.178 836.5,971C 714.483,1052.34 581.149,1079.67 436.5,1053C 281.13,1018.55 163.297,933.049 83,796.5C 12.7572,666.648 -2.24283,530.648 38,388.5C 74.7358,271.81 142.902,178.31 242.5,108C 328.9,49.8118 424.233,18.9785 528.5,15.5 Z"/></g>
<g><path style="opacity:1" fill="#fdfdfe" d="M 510.5,29.5 C 672.697,24.3888 808.863,80.7221 919,198.5C 1024.36,320.175 1065.69,461.175 1043,621.5C 1014.37,776.392 933.533,895.225 800.5,978C 676.199,1048.95 544.532,1066.95 405.5,1032C 257.87,988.686 149.37,898.519 80,761.5C 19.6644,630.773 13.3311,497.44 61,361.5C 117.833,218 218,117.833 361.5,61C 409.802,43.3745 459.469,32.8745 510.5,29.5 Z"/></g>
<g><path style="opacity:1" fill="#0a316b" d="M 881.5,481.5 C 882.105,484.127 882.605,486.793 883,489.5C 883.827,476.993 883.66,464.66 882.5,452.5C 882.414,448.143 882.08,443.81 881.5,439.5C 882.802,437.972 884.469,436.972 886.5,436.5C 897.149,435.578 907.816,434.912 918.5,434.5C 873.288,305.788 785.955,219.955 656.5,177C 592.474,158.316 527.807,155.649 462.5,169C 444.866,169.829 427.533,172.496 410.5,177C 399.693,180.246 389.026,183.746 378.5,187.5C 371.485,190.354 367.152,195.52 365.5,203C 274.997,251.515 211.33,323.849 174.5,420C 174.905,420.945 175.572,421.612 176.5,422C 188.929,423.262 201.262,425.095 213.5,427.5C 211.527,433.674 210.527,440.007 210.5,446.5C 209.352,450.981 209.185,455.648 210,460.5C 210.44,458.134 210.94,455.801 211.5,453.5C 233.876,367.826 281.542,300.16 354.5,250.5C 355.663,255.802 355.829,261.136 355,266.5C 271.047,327.702 224.38,410.369 215,514.5C 211.768,577.902 225.101,637.569 255,693.5C 255.473,703.223 256.14,712.89 257,722.5C 226.424,674.943 208.257,622.943 202.5,566.5C 165.208,562.437 127.874,558.771 90.5,555.5C 89.193,536.188 88.193,516.854 87.5,497.5C 77.7684,495.366 68.1017,493.032 58.5,490.5C 75.4362,384.979 118.936,292.313 189,212.5C 291.834,104.864 418,53.0307 567.5,57C 730.778,69.3484 857.944,142.848 949,277.5C 990.55,343.807 1017.72,415.641 1030.5,493C 1020.49,495.835 1010.49,498.668 1000.5,501.5C 997.986,521.455 995.986,541.455 994.5,561.5C 957.825,562.989 921.158,564.656 884.5,566.5C 876.5,648.152 844,718.152 787,776.5C 786.333,770.167 786.333,763.833 787,757.5C 862.944,669.514 888.277,568.514 863,454.5C 837.506,363.036 783.673,293.87 701.5,247C 687.975,239.57 673.975,233.237 659.5,228C 653.532,221.031 647.199,214.364 640.5,208C 723.404,233.226 788.238,282.392 835,355.5C 859.211,394.261 874.711,436.261 881.5,481.5 Z"/></g>
<g><path style="opacity:1" fill="#fbfbfc" d="M 378.5,187.5 C 306.399,220.09 248.899,269.757 206,336.5C 174.828,386.858 153.662,441.191 142.5,499.5C 125.588,496.018 108.588,492.851 91.5,490C 83.6541,488.124 75.9874,485.791 68.5,483C 86.5053,383.168 128.672,295.335 195,219.5C 289.332,119.244 405.666,67.9104 544,65.5C 682.648,68.5094 799.314,120.176 894,220.5C 961.023,297.233 1002.86,386.233 1019.5,487.5C 995.523,493.326 971.689,499.66 948,506.5C 934.592,436.043 907.259,371.71 866,313.5C 783.949,207.975 675.616,153.975 541,151.5C 494.125,152.148 448.625,160.315 404.5,176C 395.524,179.371 386.857,183.205 378.5,187.5 Z"/></g>
<g><path style="opacity:1" fill="#9eafc5" d="M 513.5,90.5 C 516.287,89.5233 519.287,89.19 522.5,89.5C 522.5,90.5 522.5,91.5 522.5,92.5C 519.855,90.7581 516.855,90.0914 513.5,90.5 Z"/></g>
<g><path style="opacity:1" fill="#0d326c" d="M 527.5,126.5 C 529.167,126.5 530.833,126.5 532.5,126.5C 532.817,122.298 532.483,118.298 531.5,114.5C 531.5,111.5 531.5,108.5 531.5,105.5C 531.5,101.833 531.5,98.1667 531.5,94.5C 529.833,94.5 528.167,94.5 526.5,94.5C 525.549,93.0813 525.216,91.4147 525.5,89.5C 532.5,89.5 539.5,89.5 546.5,89.5C 546.5,91.1667 546.5,92.8333 546.5,94.5C 544.5,94.5 542.5,94.5 540.5,94.5C 540.5,104.833 540.5,115.167 540.5,125.5C 542.167,125.5 543.833,125.5 545.5,125.5C 545.5,127.5 545.5,129.5 545.5,131.5C 539.5,131.5 533.5,131.5 527.5,131.5C 527.5,129.833 527.5,128.167 527.5,126.5 Z"/></g>
<g><path style="opacity:1" fill="#0b316b" d="M 561.5,89.5 C 570.59,88.0164 577.09,91.3498 581,99.5C 582.102,107.679 581.435,115.679 579,123.5C 573.993,132.501 566.826,134.667 557.5,130C 554.57,127.88 552.737,125.047 552,121.5C 551.333,114.833 551.333,108.167 552,101.5C 553.526,96.0719 556.693,92.0719 561.5,89.5 Z"/></g>
<g><path style="opacity:1" fill="#0b316b" d="M 513.5,90.5 C 516.855,90.0914 519.855,90.7581 522.5,92.5C 522.5,96.8333 522.5,101.167 522.5,105.5C 520.167,105.5 517.833,105.5 515.5,105.5C 515.5,103.833 515.5,102.167 515.5,100.5C 515.5,98.5 515.5,96.5 515.5,94.5C 513.265,94.2053 511.265,94.5386 509.5,95.5C 510.167,105.833 510.833,116.167 511.5,126.5C 513.167,126.5 514.833,126.5 516.5,126.5C 516.5,128.167 516.5,129.833 516.5,131.5C 510.529,132.241 504.529,132.575 498.5,132.5C 498.5,131.167 498.5,129.833 498.5,128.5C 500.099,128.768 501.432,128.434 502.5,127.5C 501.698,117.145 500.698,106.812 499.5,96.5C 497.833,96.5 496.167,96.5 494.5,96.5C 494.5,100.167 494.5,103.833 494.5,107.5C 492.167,107.5 489.833,107.5 487.5,107.5C 486.836,102.527 486.503,97.5275 486.5,92.5C 495.48,91.5859 504.48,90.9192 513.5,90.5 Z"/></g>
<g><path style="opacity:1" fill="#97a9c1" d="M 595.5,92.5 C 593.5,92.5 591.5,92.5 589.5,92.5C 589.5,93.8333 589.5,95.1667 589.5,96.5C 590.791,96.2627 591.791,96.596 592.5,97.5C 591.167,97.5 589.833,97.5 588.5,97.5C 588.5,95.5 588.5,93.5 588.5,91.5C 591.059,91.1984 593.393,91.5318 595.5,92.5 Z"/></g>
<g><path style="opacity:1" fill="#0d326c" d="M 595.5,92.5 C 598.883,92.2572 602.049,92.9239 605,94.5C 608.497,102.155 610.664,110.155 611.5,118.5C 611.369,119.376 611.702,120.043 612.5,120.5C 613.48,117.914 613.813,115.247 613.5,112.5C 613.411,109.291 613.744,106.125 614.5,103C 614.089,100.786 612.755,99.4526 610.5,99C 611.38,97.6439 611.714,96.1439 611.5,94.5C 617.116,95.5402 622.783,96.2069 628.5,96.5C 628.5,98.5 628.5,100.5 628.5,102.5C 626.533,102.261 624.699,102.594 623,103.5C 620.613,114.433 618.613,125.433 617,136.5C 614.646,136.892 612.146,136.892 609.5,136.5C 606.563,126.191 603.73,115.858 601,105.5C 599.506,113.455 598.339,121.455 597.5,129.5C 598.833,129.5 600.167,129.5 601.5,129.5C 601.5,131.167 601.5,132.833 601.5,134.5C 596.155,134.313 590.822,133.98 585.5,133.5C 585.5,131.833 585.5,130.167 585.5,128.5C 586.5,128.5 587.5,128.5 588.5,128.5C 589.222,128.082 589.722,127.416 590,126.5C 590.898,117.112 592.065,107.779 593.5,98.5C 593.376,97.8933 593.043,97.56 592.5,97.5C 591.791,96.596 590.791,96.2627 589.5,96.5C 589.5,95.1667 589.5,93.8333 589.5,92.5C 591.5,92.5 593.5,92.5 595.5,92.5 Z"/></g>
<g><path style="opacity:1" fill="#09306b" d="M 466.5,129.5 C 466.5,130.5 466.5,131.5 466.5,132.5C 468.292,132.366 469.958,132.699 471.5,133.5C 471.64,135.124 470.973,136.29 469.5,137C 465.075,137.417 460.742,138.251 456.5,139.5C 454.104,137.494 454.104,135.828 456.5,134.5C 458.453,128.926 459.12,122.926 458.5,116.5C 458.5,111.833 458.5,107.167 458.5,102.5C 456.833,102.5 455.167,102.5 453.5,102.5C 453.141,100.234 453.808,98.4007 455.5,97C 463.102,95.5103 470.769,94.677 478.5,94.5C 478.5,96.1667 478.5,97.8333 478.5,99.5C 477.127,99.3433 475.793,99.51 474.5,100C 478.5,109.667 482.5,119.333 486.5,129C 487.793,129.49 489.127,129.657 490.5,129.5C 490.5,131.167 490.5,132.833 490.5,134.5C 484.839,134.907 479.172,135.24 473.5,135.5C 473.5,133.833 473.5,132.167 473.5,130.5C 474.5,130.5 475.5,130.5 476.5,130.5C 477.061,123.127 473.728,120.46 466.5,122.5C 466.5,124.833 466.5,127.167 466.5,129.5 Z"/></g>
<g><path style="opacity:1" fill="#f7f8fa" d="M 564.5,95.5 C 567.044,95.1043 569.211,95.771 571,97.5C 571.867,106.624 571.201,115.624 569,124.5C 565.555,127.556 563.222,126.89 562,122.5C 561.333,115.5 561.333,108.5 562,101.5C 562.573,99.3594 563.406,97.3594 564.5,95.5 Z"/></g>
<g><path style="opacity:1" fill="#758cad" d="M 509.5,95.5 C 511.265,94.5386 513.265,94.2053 515.5,94.5C 515.5,96.5 515.5,98.5 515.5,100.5C 514.549,99.0813 514.216,97.4147 514.5,95.5C 512.833,95.5 511.167,95.5 509.5,95.5 Z"/></g>
<g><path style="opacity:1" fill="#abbacd" d="M 526.5,94.5 C 528.167,94.5 529.833,94.5 531.5,94.5C 531.5,98.1667 531.5,101.833 531.5,105.5C 530.521,102.375 530.187,99.0419 530.5,95.5C 528.901,95.7678 527.568,95.4345 526.5,94.5 Z"/></g>
<g><path style="opacity:1" fill="#0d326c" d="M 638.5,99.5 C 646.918,100.884 655.252,102.717 663.5,105C 662.62,106.356 662.286,107.856 662.5,109.5C 661.07,109.579 659.736,109.246 658.5,108.5C 656.855,119.117 656.355,129.784 657,140.5C 657.75,141.126 658.584,141.626 659.5,142C 658.62,143.356 658.286,144.856 658.5,146.5C 652.807,144.993 647.14,143.326 641.5,141.5C 642.246,140.264 642.579,138.93 642.5,137.5C 643.978,137.762 645.311,137.429 646.5,136.5C 647.393,133.916 647.726,131.249 647.5,128.5C 640.556,126.277 637.223,128.943 637.5,136.5C 638.675,136.281 639.675,136.614 640.5,137.5C 639.754,138.736 639.421,140.07 639.5,141.5C 634.827,140.777 630.16,139.943 625.5,139C 623.808,137.599 623.141,135.766 623.5,133.5C 627.825,133.898 630.325,131.898 631,127.5C 634.227,120.045 637.727,112.712 641.5,105.5C 640.311,104.571 638.978,104.238 637.5,104.5C 637.629,102.784 637.962,101.117 638.5,99.5 Z"/></g>
<g><path style="opacity:1" fill="#0e336c" d="M 442.5,99.5 C 443.88,99.9623 444.547,100.962 444.5,102.5C 443.419,104.211 442.085,105.711 440.5,107C 444.039,118.319 446.705,129.819 448.5,141.5C 446.181,142.167 443.847,142.334 441.5,142C 434.548,133.926 427.714,125.759 421,117.5C 423.438,124.995 425.605,132.662 427.5,140.5C 428.93,140.579 430.264,140.246 431.5,139.5C 432.244,140.991 432.91,142.491 433.5,144C 428.843,146 424.009,147.5 419,148.5C 417.124,147.381 416.291,145.714 416.5,143.5C 417.5,143.5 418.5,143.5 419.5,143.5C 419.662,141.473 419.495,139.473 419,137.5C 416.191,129.573 413.691,121.573 411.5,113.5C 406.928,115.496 404.928,113.829 405.5,108.5C 410.474,107.203 415.474,106.37 420.5,106C 426.375,112.207 431.875,118.707 437,125.5C 435.516,119.565 434.016,113.565 432.5,107.5C 430.856,107.286 429.356,107.62 428,108.5C 426.89,106.603 426.724,104.77 427.5,103C 432.646,101.875 437.646,100.709 442.5,99.5 Z"/></g>
<g><path style="opacity:1" fill="#eef1f5" d="M 467.5,101.5 C 469.158,106.138 470.825,110.805 472.5,115.5C 470.827,117.086 468.827,117.753 466.5,117.5C 466.5,115.5 466.5,113.5 466.5,111.5C 466.187,107.958 466.521,104.625 467.5,101.5 Z"/></g>
<g><path style="opacity:1" fill="#8b9fba" d="M 467.5,101.5 C 466.521,104.625 466.187,107.958 466.5,111.5C 465.191,107.649 465.191,103.649 466.5,99.5C 467.298,99.9569 467.631,100.624 467.5,101.5 Z"/></g>
<g><path style="opacity:1" fill="#e2e7ee" d="M 649.5,105.5 C 650.147,106.274 650.48,107.274 650.5,108.5C 649.832,113.513 649.165,118.513 648.5,123.5C 646.173,123.753 644.173,123.086 642.5,121.5C 644.84,116.137 647.174,110.804 649.5,105.5 Z"/></g>
<g><path style="opacity:1" fill="#0c326b" d="M 673.5,107.5 C 679.465,109.326 685.465,111.16 691.5,113C 692.386,114.902 692.053,116.735 690.5,118.5C 688.929,117.691 687.262,117.357 685.5,117.5C 682.707,126.544 679.707,135.544 676.5,144.5C 677.811,147.299 680.145,148.632 683.5,148.5C 684.014,143.943 685.68,139.943 688.5,136.5C 690.933,137.023 692.933,138.19 694.5,140C 692.691,145.097 690.691,150.097 688.5,155C 679.472,152.827 670.472,150.327 661.5,147.5C 661.162,142.669 663.162,141.335 667.5,143.5C 670.502,133.489 673.502,123.489 676.5,113.5C 675.178,113.67 674.011,113.337 673,112.5C 673.019,110.893 673.185,109.226 673.5,107.5 Z"/></g>
<g><path style="opacity:1" fill="#0b316b" d="M 384.5,115.5 C 391.206,114.407 397.039,116.074 402,120.5C 403.332,125.553 402.165,129.886 398.5,133.5C 403.179,139.36 408.512,144.193 414.5,148C 414.355,148.772 414.022,149.439 413.5,150C 410.57,151.318 407.57,151.985 404.5,152C 400.167,147.667 395.833,143.333 391.5,139C 390.552,138.517 389.552,138.351 388.5,138.5C 389.223,142.669 390.556,146.669 392.5,150.5C 394.021,150.88 395.687,151.046 397.5,151C 398.38,152.356 398.714,153.856 398.5,155.5C 392.97,156.9 387.636,158.9 382.5,161.5C 381.026,160.564 380.026,159.23 379.5,157.5C 381.053,156.561 382.387,155.394 383.5,154C 379.676,144.858 376.009,135.691 372.5,126.5C 370.418,126.472 368.584,127.139 367,128.5C 365.077,126.881 364.577,125.048 365.5,123C 371.932,120.44 378.265,117.94 384.5,115.5 Z"/></g>
<g><path style="opacity:1" fill="#516e97" d="M 531.5,114.5 C 532.483,118.298 532.817,122.298 532.5,126.5C 530.833,126.5 529.167,126.5 527.5,126.5C 528.568,125.566 529.901,125.232 531.5,125.5C 531.5,121.833 531.5,118.167 531.5,114.5 Z"/></g>
<g><path style="opacity:1" fill="#7b91b0" d="M 458.5,116.5 C 459.12,122.926 458.453,128.926 456.5,134.5C 457.128,128.399 457.795,122.399 458.5,116.5 Z"/></g>
<g><path style="opacity:1" fill="#7088aa" d="M 613.5,112.5 C 613.813,115.247 613.48,117.914 612.5,120.5C 611.702,120.043 611.369,119.376 611.5,118.5C 612.167,116.5 612.833,114.5 613.5,112.5 Z"/></g>
<g><path style="opacity:1" fill="#f1f4f7" d="M 382.5,121.5 C 390.491,119.66 393.658,122.66 392,130.5C 390.172,132.081 388.172,133.415 386,134.5C 383.433,130.336 382.266,126.002 382.5,121.5 Z"/></g>
<g><path style="opacity:1" fill="#0c326c" d="M 357.5,125.5 C 358.822,125.33 359.989,125.663 361,126.5C 362.118,129.855 363.618,133.022 365.5,136C 363.167,137.167 360.833,138.333 358.5,139.5C 356.447,138.061 355.447,136.061 355.5,133.5C 352.273,133.78 349.607,135.113 347.5,137.5C 349.079,140.994 350.913,144.327 353,147.5C 356.448,144.507 358.948,145.007 360.5,149C 359.183,150.614 357.517,151.781 355.5,152.5C 357.516,156.531 359.516,160.531 361.5,164.5C 363.413,163.627 365.247,162.627 367,161.5C 366.847,158.826 366.347,156.16 365.5,153.5C 367.91,152.937 370.243,152.437 372.5,152C 374.067,155.525 375.733,159.025 377.5,162.5C 369.212,166.893 360.712,170.893 352,174.5C 350.558,173.788 349.725,172.621 349.5,171C 350.509,169.832 351.509,168.665 352.5,167.5C 347.667,158.5 342.833,149.5 338,140.5C 334.799,143.49 332.632,142.823 331.5,138.5C 340.227,134.136 348.894,129.803 357.5,125.5 Z"/></g>
<g><path style="opacity:1" fill="#627ca1" d="M 502.5,127.5 C 501.432,128.434 500.099,128.768 498.5,128.5C 498.5,129.833 498.5,131.167 498.5,132.5C 497.549,131.081 497.216,129.415 497.5,127.5C 499.167,127.5 500.833,127.5 502.5,127.5 Z"/></g>
<g><path style="opacity:1" fill="#95a7c0" d="M 588.5,128.5 C 587.5,128.5 586.5,128.5 585.5,128.5C 585.5,130.167 585.5,131.833 585.5,133.5C 584.539,131.735 584.205,129.735 584.5,127.5C 586.099,127.232 587.432,127.566 588.5,128.5 Z"/></g>
<g><path style="opacity:1" fill="#0d326c" d="M 734.5,129.5 C 740.759,131.86 746.759,134.693 752.5,138C 751.833,139 751.167,140 750.5,141C 748.82,141.034 747.32,141.201 746,141.5C 742.255,149.324 738.255,156.991 734,164.5C 733.165,170.99 735.832,172.99 742,170.5C 746.333,162.833 750.667,155.167 755,147.5C 755.54,145.865 755.04,144.532 753.5,143.5C 754.04,142.252 754.707,141.085 755.5,140C 761.142,141.323 766.142,143.989 770.5,148C 769.122,151.94 766.955,152.44 764,149.5C 758.748,157.668 753.748,166.001 749,174.5C 739.354,179.255 731.354,177.255 725,168.5C 724.333,166.167 724.333,163.833 725,161.5C 729.039,153.255 733.206,145.089 737.5,137C 735.939,136.059 734.605,134.892 733.5,133.5C 734.246,132.264 734.579,130.93 734.5,129.5 Z"/></g>
<g><path style="opacity:1" fill="#6e87a9" d="M 466.5,129.5 C 468.419,130.612 470.086,131.946 471.5,133.5C 469.958,132.699 468.292,132.366 466.5,132.5C 466.5,131.5 466.5,130.5 466.5,129.5 Z"/></g>
<g><path style="opacity:1" fill="#0e336c" d="M 325.5,140.5 C 327.592,140.561 329.092,141.561 330,143.5C 331.636,146.606 333.136,149.773 334.5,153C 333.214,154.649 331.547,155.815 329.5,156.5C 326.856,153.891 324.689,150.891 323,147.5C 320.259,148.222 319.259,149.888 320,152.5C 324.969,160.966 330.135,169.299 335.5,177.5C 338.382,174.477 340.382,174.977 341.5,179C 341.355,179.772 341.022,180.439 340.5,181C 335.573,183.38 330.739,185.88 326,188.5C 324.558,187.788 323.725,186.621 323.5,185C 324.509,183.832 325.509,182.665 326.5,181.5C 321.317,172.455 315.651,163.788 309.5,155.5C 307.77,156.026 306.436,157.026 305.5,158.5C 307.167,161.167 308.833,163.833 310.5,166.5C 308.971,168.188 307.137,169.521 305,170.5C 301.921,166.676 299.088,162.676 296.5,158.5C 296.977,157.522 297.643,156.689 298.5,156C 307.563,150.806 316.563,145.64 325.5,140.5 Z"/></g>
<g><path style="opacity:1" fill="#0d336c" d="M 773.5,149.5 C 778.339,151.17 782.839,153.503 787,156.5C 787.667,159.167 787.667,161.833 787,164.5C 785.763,171.603 784.429,178.603 783,185.5C 786.047,179.125 789.881,173.292 794.5,168C 793.449,166.615 792.116,165.615 790.5,165C 791.304,163.229 792.471,161.729 794,160.5C 798.696,164.028 803.529,167.362 808.5,170.5C 807.5,171.833 806.5,173.167 805.5,174.5C 803.831,173.11 802.164,172.777 800.5,173.5C 793.5,182.833 786.5,192.167 779.5,201.5C 776.865,200.527 774.865,198.86 773.5,196.5C 774.968,186.759 776.468,177.092 778,167.5C 773.957,173.753 769.79,179.92 765.5,186C 768.73,187.724 769.064,189.724 766.5,192C 764.402,191.968 762.402,191.301 760.5,190C 757.622,188.401 754.956,186.567 752.5,184.5C 753.04,183.252 753.707,182.085 754.5,181C 756.38,181.51 758.213,181.343 760,180.5C 765.042,172.249 770.208,164.082 775.5,156C 772.408,154.541 771.742,152.374 773.5,149.5 Z"/></g>
<g><path style="opacity:1" fill="#0d326c" d="M 290.5,160.5 C 296.125,162.214 296.459,164.38 291.5,167C 298.694,176.694 305.694,186.528 312.5,196.5C 310.953,198.194 309.12,199.527 307,200.5C 296.438,195.637 286.271,190.471 276.5,185C 282.068,190.812 287.401,196.812 292.5,203C 295.514,201.728 297.847,202.561 299.5,205.5C 295.386,209.064 291.052,212.397 286.5,215.5C 282.831,213.097 282.831,210.93 286.5,209C 281.333,202.5 276.167,196 271,189.5C 269.611,187.773 267.944,186.439 266,185.5C 263.219,188.006 261.053,187.339 259.5,183.5C 263.313,179.759 267.646,176.759 272.5,174.5C 280.519,177.592 288.019,181.592 295,186.5C 295.667,185.833 295.667,185.167 295,184.5C 291.714,180.759 288.547,176.925 285.5,173C 283.965,172.504 282.465,172.67 281,173.5C 279.726,172.465 278.56,171.298 277.5,170C 282.015,166.97 286.349,163.803 290.5,160.5 Z"/></g>
<g><path style="opacity:1" fill="#0c326c" d="M 811.5,173.5 C 817.685,176.672 823.352,180.672 828.5,185.5C 827.52,186.981 826.353,188.315 825,189.5C 822.667,185.5 820.333,185.5 818,189.5C 812.309,196.356 806.809,203.356 801.5,210.5C 802.263,211.719 803.263,212.719 804.5,213.5C 803.52,214.981 802.353,216.315 801,217.5C 796.077,213.955 791.244,210.288 786.5,206.5C 787.654,202.164 789.82,201.498 793,204.5C 799.731,196.715 806.231,188.715 812.5,180.5C 811.5,179.167 810.5,177.833 809.5,176.5C 810.193,175.482 810.859,174.482 811.5,173.5 Z"/></g>
<g><path style="opacity:1" fill="#042e69" d="M 446.5,174.5 C 499.926,175.7 553.26,178.533 606.5,183C 609.217,184.259 610.55,186.426 610.5,189.5C 608.919,193.392 608.086,197.392 608,201.5C 612.093,199.538 616.259,197.704 620.5,196C 627.617,194.142 632.451,196.642 635,203.5C 635.601,206.637 636.601,209.637 638,212.5C 652.755,223.922 662.755,238.589 668,256.5C 670.59,275.818 665.59,292.818 653,307.5C 648.301,312.534 643.301,317.2 638,321.5C 635.563,324.376 634.23,327.71 634,331.5C 634.029,359.21 633.029,386.876 631,414.5C 630.184,419.546 629.184,424.546 628,429.5C 626.062,432.106 623.562,433.939 620.5,435C 610.418,439.139 600.418,443.472 590.5,448C 581.027,451.547 571.36,454.381 561.5,456.5C 565.17,473.841 568.837,491.175 572.5,508.5C 572.621,516.054 568.955,520.721 561.5,522.5C 560.226,523.359 560.392,524.026 562,524.5C 571.833,528.667 581.667,532.833 591.5,537C 598.391,539.825 605.391,540.158 612.5,538C 618.665,533.75 624.998,529.75 631.5,526C 643.473,521.752 655.806,520.419 668.5,522C 675.819,524.33 683.319,525.497 691,525.5C 703.159,524.568 715.326,524.401 727.5,525C 734.281,525.973 739.781,529.14 744,534.5C 746.837,540.351 749.67,546.184 752.5,552C 758.153,554.795 764.153,556.461 770.5,557C 774.219,558.263 776.719,560.763 778,564.5C 779.414,635.505 780.747,706.505 782,777.5C 781.476,788.377 777.31,797.543 769.5,805C 756.015,813.8 742.015,821.8 727.5,829C 715.298,834.106 702.631,835.772 689.5,834C 670.006,829.768 650.339,826.435 630.5,824C 618.535,821.678 606.868,818.345 595.5,814C 589.167,813.667 582.833,813.333 576.5,813C 572.894,811.726 570.227,809.393 568.5,806C 561.55,805.067 558.383,801.233 559,794.5C 577.669,762.168 584.003,727.501 578,690.5C 571.027,657.224 559.027,625.89 542,596.5C 538.685,592.182 534.519,589.015 529.5,587C 487.269,582.1 444.936,578.1 402.5,575C 387.472,570.731 375.639,574.897 367,587.5C 365.707,591.582 366.874,594.749 370.5,597C 374.167,597.667 377.833,597.667 381.5,597C 403.738,588.83 426.071,588.497 448.5,596C 455.555,599.186 461.889,603.353 467.5,608.5C 457.9,614.883 448.067,620.883 438,626.5C 415.141,606.44 388.641,598.94 358.5,604C 348.136,606.54 337.803,609.206 327.5,612C 318.786,615.571 309.953,618.737 301,621.5C 298.745,621.39 297.078,620.39 296,618.5C 295.501,614.848 295.335,611.182 295.5,607.5C 294.167,607.5 292.833,607.5 291.5,607.5C 291.924,589.089 293.091,570.756 295,552.5C 296.779,548.388 299.612,545.222 303.5,543C 311.321,540.842 318.155,537.008 324,531.5C 324.998,526.996 325.831,522.496 326.5,518C 329.554,515.806 332.888,514.139 336.5,513C 354.72,510.31 372.053,512.977 388.5,521C 398.217,533.449 408.05,533.616 418,521.5C 428.426,506.081 438.426,490.414 448,474.5C 448.667,472.167 448.667,469.833 448,467.5C 444.834,462.02 441.334,456.853 437.5,452C 442.125,439.893 443.625,427.393 442,414.5C 439.302,402.29 438.302,389.957 439,377.5C 439.516,374.966 440.683,372.8 442.5,371C 449.9,369.866 457.4,369.366 465,369.5C 491.163,370.56 517.329,371.06 543.5,371C 548.389,369.557 553.055,367.557 557.5,365C 553.205,364.088 548.872,363.421 544.5,363C 488.683,362.659 433.016,359.659 377.5,354C 364.685,349.487 358.519,340.32 359,326.5C 358.333,309.167 358.333,291.833 359,274.5C 359.783,254.092 360.783,233.758 362,213.5C 363.319,211.513 365.152,210.346 367.5,210C 371.167,209.833 374.833,209.667 378.5,209.5C 427.15,211.231 475.817,211.897 524.5,211.5C 524.5,210.167 524.5,208.833 524.5,207.5C 513.867,206.337 503.201,205.503 492.5,205C 462.491,204.245 432.491,203.245 402.5,202C 392.402,201.557 382.402,200.39 372.5,198.5C 373.427,195.53 375.427,193.697 378.5,193C 400.532,183.995 423.199,177.828 446.5,174.5 Z"/></g>
<g><path style="opacity:1" fill="#9baec3" d="M 463.5,181.5 C 468.032,181.182 472.366,181.515 476.5,182.5C 475.209,182.263 474.209,182.596 473.5,183.5C 466.978,183.823 460.645,183.49 454.5,182.5C 457.713,182.81 460.713,182.477 463.5,181.5 Z"/></g>
<g><path style="opacity:1" fill="#053969" d="M 454.5,182.5 C 460.645,183.49 466.978,183.823 473.5,183.5C 484.479,184.32 495.479,184.653 506.5,184.5C 512.645,185.49 518.978,185.823 525.5,185.5C 534.167,185.833 542.833,186.167 551.5,186.5C 564.164,186.987 576.831,187.487 589.5,188C 580.246,191.863 570.912,195.529 561.5,199C 557.514,199.499 553.514,199.666 549.5,199.5C 502.655,197.006 455.655,194.506 408.5,192C 423.638,187.739 438.972,184.573 454.5,182.5 Z"/></g>
<g><path style="opacity:1" fill="#c2cdda" d="M 473.5,183.5 C 474.209,182.596 475.209,182.263 476.5,182.5C 489.511,182.5 502.511,182.834 515.5,183.5C 512.713,184.477 509.713,184.81 506.5,184.5C 495.479,184.653 484.479,184.32 473.5,183.5 Z"/></g>
<g><path style="opacity:1" fill="#9aaec3" d="M 515.5,183.5 C 520.032,183.182 524.366,183.515 528.5,184.5C 527.209,184.263 526.209,184.596 525.5,185.5C 518.978,185.823 512.645,185.49 506.5,184.5C 509.713,184.81 512.713,184.477 515.5,183.5 Z"/></g>
<g><path style="opacity:1" fill="#c6d2dd" d="M 525.5,185.5 C 526.209,184.596 527.209,184.263 528.5,184.5C 536.201,184.309 543.868,184.642 551.5,185.5C 551.5,185.833 551.5,186.167 551.5,186.5C 542.833,186.167 534.167,185.833 525.5,185.5 Z"/></g>
<g><path style="opacity:1" fill="#0c326c" d="M 255.5,185.5 C 260.267,188.318 260.267,190.818 255.5,193C 261.794,200.962 268.46,208.629 275.5,216C 277.107,216.115 278.607,215.615 280,214.5C 281.274,215.535 282.44,216.702 283.5,218C 278.979,222.022 274.312,225.856 269.5,229.5C 268.019,228.52 266.685,227.353 265.5,226C 267.329,224.887 268.163,223.387 268,221.5C 261.322,213.99 254.489,206.657 247.5,199.5C 244.995,203.29 242.662,203.29 240.5,199.5C 245.52,194.812 250.52,190.145 255.5,185.5 Z"/></g>
<g><path style="opacity:1" fill="#bac6d6" d="M 463.5,181.5 C 460.713,182.477 457.713,182.81 454.5,182.5C 438.972,184.573 423.638,187.739 408.5,192C 455.655,194.506 502.655,197.006 549.5,199.5C 548.508,199.328 547.842,199.662 547.5,200.5C 497.426,198.754 447.426,196.254 397.5,193C 412.442,189.181 427.442,185.515 442.5,182C 449.492,181.5 456.492,181.334 463.5,181.5 Z"/></g>
<g><path style="opacity:1" fill="#0c326c" d="M 829.5,187.5 C 835.48,190.506 840.813,194.506 845.5,199.5C 843.642,203.958 841.475,204.292 839,200.5C 835.641,206.716 832.141,212.883 828.5,219C 834.814,215.664 841.148,211.997 847.5,208C 843.602,205.852 843.602,203.686 847.5,201.5C 852.613,205.11 857.28,209.277 861.5,214C 860.315,215.353 858.981,216.52 857.5,217.5C 856.167,216.5 854.833,215.5 853.5,214.5C 841.844,220.326 830.51,226.66 819.5,233.5C 817.5,232.167 815.833,230.5 814.5,228.5C 820.828,217.192 825.995,205.525 830,193.5C 829.167,192.667 828.333,191.833 827.5,191C 828.823,190.184 829.489,189.017 829.5,187.5 Z"/></g>
<g><path style="opacity:1" fill="#dde4eb" d="M 551.5,186.5 C 551.5,186.167 551.5,185.833 551.5,185.5C 566.176,185.667 580.843,186.167 595.5,187C 585.201,191.325 574.867,195.658 564.5,200C 558.843,200.499 553.176,200.666 547.5,200.5C 547.842,199.662 548.508,199.328 549.5,199.5C 553.514,199.666 557.514,199.499 561.5,199C 570.912,195.529 580.246,191.863 589.5,188C 576.831,187.487 564.164,186.987 551.5,186.5 Z"/></g>
<g><path style="opacity:1" fill="#f8f9fb" d="M 390.5,214.5 C 404.454,215.65 418.454,216.483 432.5,217C 469.5,217.333 506.5,217.667 543.5,218C 550.056,218.352 554.556,221.519 557,227.5C 557.98,254.542 557.314,281.542 555,308.5C 554.431,326.072 545.431,334.072 528,332.5C 482.46,330.268 436.96,327.435 391.5,324C 383.556,321.723 378.722,316.556 377,308.5C 376.333,282.167 376.333,255.833 377,229.5C 379.29,222.383 383.79,217.383 390.5,214.5 Z"/></g>
<g><path style="opacity:1" fill="#fafbfc" d="M 611.5,215.5 C 612.873,215.343 614.207,215.51 615.5,216C 605.589,228.992 598.755,243.492 595,259.5C 592.085,283.09 598.918,303.257 615.5,320C 597.953,321.306 585.786,313.806 579,297.5C 573.828,281.701 573.162,265.701 577,249.5C 582.519,231.812 594.019,220.479 611.5,215.5 Z"/></g>
<g><path style="opacity:1" fill="#0c326c" d="M 862.5,216.5 C 871.125,223.124 878.791,230.791 885.5,239.5C 883.105,242.861 880.105,245.528 876.5,247.5C 874.167,245.833 872.167,243.833 870.5,241.5C 877.224,236.78 876.557,233.614 868.5,232C 866.145,234.355 863.812,236.688 861.5,239C 862.439,240.944 863.773,242.611 865.5,244C 864.315,245.353 862.981,246.52 861.5,247.5C 860.185,245.684 858.685,244.017 857,242.5C 853.201,245.297 849.701,248.464 846.5,252C 848.333,253.833 850.167,255.667 852,257.5C 853.684,255.649 855.517,253.982 857.5,252.5C 859.89,253.891 861.557,255.891 862.5,258.5C 859.729,261.392 856.729,264.058 853.5,266.5C 846.49,259.642 839.823,252.475 833.5,245C 835.265,241.949 837.265,241.783 839.5,244.5C 847.492,237.841 855.159,230.841 862.5,223.5C 861.687,222.186 860.687,221.019 859.5,220C 860.71,218.961 861.71,217.794 862.5,216.5 Z"/></g>
<g><path style="opacity:1" fill="#29467b" d="M 408.5,220.5 C 420.164,220.985 431.83,221.485 443.5,222C 439.616,223.097 435.616,223.597 431.5,223.5C 423.491,223.142 415.491,222.642 407.5,222C 408.056,221.617 408.389,221.117 408.5,220.5 Z"/></g>
<g><path style="opacity:1" fill="#12346e" d="M 396.5,226.5 C 443.147,228.555 489.814,230.055 536.5,231C 542.737,232.297 545.404,236.131 544.5,242.5C 543.544,266.596 541.711,290.596 539,314.5C 537.773,316.726 535.939,318.226 533.5,319C 489.791,318.22 446.125,316.22 402.5,313C 393.014,313.516 387.847,309.016 387,299.5C 386.333,281.5 386.333,263.5 387,245.5C 387.303,241.106 387.97,236.773 389,232.5C 391.109,229.878 393.609,227.878 396.5,226.5 Z"/></g>
<g><path style="opacity:1" fill="#0c326c" d="M 208.5,228.5 C 213.664,229.908 214.331,232.242 210.5,235.5C 219.5,240.333 228.5,245.167 237.5,250C 239.367,250.711 240.867,250.211 242,248.5C 243.757,249.119 244.924,250.286 245.5,252C 242.048,256.455 238.214,260.622 234,264.5C 232.833,263.333 231.667,262.167 230.5,261C 232.007,260.163 232.507,258.996 232,257.5C 229.667,256.167 227.333,254.833 225,253.5C 223.167,255.333 221.333,257.167 219.5,259C 221.684,261.016 223.684,263.183 225.5,265.5C 228.138,262.964 230.471,263.297 232.5,266.5C 229.179,271.152 225.513,275.485 221.5,279.5C 220.167,278.5 218.833,277.5 217.5,276.5C 218.833,275.38 219.333,274.047 219,272.5C 212.311,264.645 205.811,256.645 199.5,248.5C 198.186,249.313 197.019,250.313 196,251.5C 194.513,250.845 193.347,249.845 192.5,248.5C 197.501,241.507 202.834,234.84 208.5,228.5 Z"/></g>
<g><path style="opacity:1" fill="#223e75" d="M 382.5,233.5 C 383.152,234.449 383.486,235.615 383.5,237C 382.927,241.158 382.427,245.324 382,249.5C 381.219,244.083 381.385,238.75 382.5,233.5 Z"/></g>
<g><path style="opacity:1" fill="#fcfdfd" d="M 414.5,234.5 C 452.165,235.034 489.832,235.534 527.5,236C 534.99,237.633 538.323,242.299 537.5,250C 536.058,268.471 535.225,286.971 535,305.5C 532.328,312.335 527.328,315.669 520,315.5C 510.595,313.627 501.095,312.461 491.5,312C 461.789,310.442 432.122,308.775 402.5,307C 398.138,304.457 395.638,300.623 395,295.5C 393.77,281.183 393.436,266.849 394,252.5C 396.376,241.284 403.209,235.284 414.5,234.5 Z"/></g>
<g><path style="opacity:1" fill="#f0f2f6" d="M 626.5,240.5 C 634.586,239.126 640.419,242.126 644,249.5C 648.981,262.109 648.314,274.442 642,286.5C 634.634,294.423 627.3,294.423 620,286.5C 613.137,273.683 612.804,260.683 619,247.5C 621.396,244.933 623.896,242.6 626.5,240.5 Z"/></g>
<g><path style="opacity:1" fill="#e8ecf1" d="M 203.5,240.5 C 208.445,243.309 213.445,246.143 218.5,249C 219.451,249.718 219.617,250.551 219,251.5C 217.887,253.329 216.387,254.163 214.5,254C 210.597,249.607 206.931,245.107 203.5,240.5 Z"/></g>
<g><path style="opacity:1" fill="#062f6a" d="M 426.5,247.5 C 427.404,246.791 427.737,245.791 427.5,244.5C 432.167,244.5 436.833,244.5 441.5,244.5C 441.5,259.833 441.5,275.167 441.5,290.5C 435.833,290.5 430.167,290.5 424.5,290.5C 424.5,283.5 424.5,276.5 424.5,269.5C 418.5,269.5 412.5,269.5 406.5,269.5C 406.5,260.833 406.5,252.167 406.5,243.5C 412.167,243.5 417.833,243.5 423.5,243.5C 424.149,248.136 424.649,252.802 425,257.5C 425.61,254.173 426.11,250.839 426.5,247.5 Z"/></g>
<g><path style="opacity:1" fill="#41638f" d="M 441.5,290.5 C 441.5,275.167 441.5,259.833 441.5,244.5C 436.833,244.5 432.167,244.5 427.5,244.5C 427.737,245.791 427.404,246.791 426.5,247.5C 426.5,246.167 426.5,244.833 426.5,243.5C 431.833,243.5 437.167,243.5 442.5,243.5C 442.83,259.342 442.496,275.009 441.5,290.5 Z"/></g>
<g><path style="opacity:1" fill="#bdc9d7" d="M 446.5,244.5 C 446.5,260.167 446.5,275.833 446.5,291.5C 447.833,291.5 449.167,291.5 450.5,291.5C 449.081,292.451 447.415,292.784 445.5,292.5C 445.17,276.325 445.504,260.325 446.5,244.5 Z"/></g>
<g><path style="opacity:1" fill="#0d336c" d="M 446.5,244.5 C 447.5,244.5 448.5,244.5 449.5,244.5C 449.171,257.011 449.505,269.345 450.5,281.5C 452.479,269.88 453.146,257.88 452.5,245.5C 453.5,245.5 454.5,245.5 455.5,245.5C 455.5,260.5 455.5,275.5 455.5,290.5C 453.708,290.366 452.042,290.699 450.5,291.5C 449.167,291.5 447.833,291.5 446.5,291.5C 446.5,275.833 446.5,260.167 446.5,244.5 Z"/></g>
<g><path style="opacity:1" fill="#7e94b3" d="M 446.5,244.5 C 447.568,243.566 448.901,243.232 450.5,243.5C 450.5,256.167 450.5,268.833 450.5,281.5C 449.505,269.345 449.171,257.011 449.5,244.5C 448.5,244.5 447.5,244.5 446.5,244.5 Z"/></g>
<g><path style="opacity:1" fill="#0b316b" d="M 888.5,243.5 C 895.63,250.477 901.463,258.477 906,267.5C 906.952,279.881 901.619,283.881 890,279.5C 886.596,283.964 883.43,288.63 880.5,293.5C 883.355,296.481 882.689,298.481 878.5,299.5C 875.742,296.977 873.742,293.977 872.5,290.5C 875.565,284.706 878.899,279.04 882.5,273.5C 882.131,271.61 881.131,270.776 879.5,271C 875.988,273.257 872.654,275.757 869.5,278.5C 872.429,281.549 871.929,283.883 868,285.5C 864.193,280.059 860.027,274.892 855.5,270C 857.09,268.954 858.59,267.787 860,266.5C 860.732,268.923 862.232,270.09 864.5,270C 872.788,264.047 880.788,257.714 888.5,251C 884.518,248.309 884.518,245.809 888.5,243.5 Z"/></g>
<g><path style="opacity:1" fill="#062f6a" d="M 628.5,244.5 C 633.093,244.547 636.593,246.547 639,250.5C 643.63,261.14 643.63,271.807 639,282.5C 633.618,289.156 628.285,289.156 623,282.5C 619.264,273.392 618.597,264.059 621,254.5C 622.803,250.523 625.303,247.189 628.5,244.5 Z"/></g>
<g><path style="opacity:1" fill="#11346d" d="M 188.5,287.5 C 186.271,282.042 183.771,276.708 181,271.5C 180.632,272.91 179.799,273.91 178.5,274.5C 177.167,273.5 175.833,272.5 174.5,271.5C 177.642,266.184 181.476,261.517 186,257.5C 190.101,259.041 190.601,261.374 187.5,264.5C 189.092,269.515 191.092,274.348 193.5,279C 199.008,279.417 204.508,279.917 210,280.5C 212.609,280.625 214.942,279.958 217,278.5C 218.434,278.93 219.601,279.764 220.5,281C 217,285.833 213.5,290.667 210,295.5C 206.109,294.249 205.276,292.249 207.5,289.5C 201.185,288.597 194.851,287.93 188.5,287.5 Z"/></g>
<g><path style="opacity:1" fill="#f4f6f8" d="M 894.5,259.5 C 899.123,263.412 899.456,267.579 895.5,272C 891.084,272.959 887.75,271.459 885.5,267.5C 888.344,264.591 891.344,261.924 894.5,259.5 Z"/></g>
<g><path style="opacity:1" fill="#0c326c" d="M 188.5,287.5 C 192.517,290.832 196.85,293.832 201.5,296.5C 204.138,293.964 206.471,294.297 208.5,297.5C 205.522,302.469 202.189,307.135 198.5,311.5C 194.184,310.555 193.518,308.555 196.5,305.5C 187.752,299.709 178.918,294.042 170,288.5C 168.647,289.685 167.48,291.019 166.5,292.5C 164.77,291.974 163.436,290.974 162.5,289.5C 165.673,283.819 169.339,278.486 173.5,273.5C 177.462,274.711 178.129,276.711 175.5,279.5C 179.722,282.44 184.055,285.106 188.5,287.5 Z"/></g>
<g><path style="opacity:1" fill="#0d336c" d="M 911.5,283.5 C 914.794,283.259 917.794,284.092 920.5,286C 923.952,291.916 927.618,297.749 931.5,303.5C 928.039,306.069 924.372,308.403 920.5,310.5C 918.957,307.914 917.291,305.414 915.5,303C 921.978,301.072 922.978,297.739 918.5,293C 914.911,292.908 912.744,294.741 912,298.5C 912.197,305.498 910.864,312.164 908,318.5C 902.337,324.707 896.337,325.041 890,319.5C 888.001,313.976 885.168,308.976 881.5,304.5C 885.119,301.35 889.119,298.684 893.5,296.5C 895.288,298.576 896.954,300.743 898.5,303C 896.246,304.377 894.08,305.877 892,307.5C 890.833,313 893,315.167 898.5,314C 900.487,312.681 901.654,310.848 902,308.5C 902.755,302.122 903.755,295.789 905,289.5C 907.063,287.266 909.229,285.266 911.5,283.5 Z"/></g>
<g><path style="opacity:1" fill="#0c326c" d="M 155.5,299.5 C 160.175,300.28 161.175,302.446 158.5,306C 168.349,309.413 178.349,312.579 188.5,315.5C 190.397,315.272 191.73,314.272 192.5,312.5C 194.23,313.026 195.564,314.026 196.5,315.5C 193.752,320.666 190.752,325.666 187.5,330.5C 183.466,329.433 182.466,327.1 184.5,323.5C 181.819,323.538 179.319,322.871 177,321.5C 175.266,323.29 173.766,325.29 172.5,327.5C 174.234,330.2 176.568,332.2 179.5,333.5C 181.71,329.745 184.044,329.745 186.5,333.5C 183.412,338.675 180.579,344.008 178,349.5C 176.414,348.624 174.914,347.624 173.5,346.5C 174.428,345.232 174.595,343.899 174,342.5C 166.593,335.882 159.093,329.382 151.5,323C 149.612,323.127 147.946,323.96 146.5,325.5C 143.918,325.253 143.085,323.92 144,321.5C 148.114,314.271 151.947,306.937 155.5,299.5 Z"/></g>
<g><path style="opacity:1" fill="#0c326c" d="M 933.5,312.5 C 934.822,312.33 935.989,312.663 937,313.5C 939.667,318.833 942.333,324.167 945,329.5C 945.544,331.845 944.544,333.179 942,333.5C 940.667,332.167 939.333,330.833 938,329.5C 928.985,333.257 920.152,337.424 911.5,342C 911.038,343.722 910.872,345.555 911,347.5C 909.759,349.421 908.259,349.754 906.5,348.5C 903.387,342.956 900.887,337.289 899,331.5C 901.542,328.614 903.375,328.947 904.5,332.5C 905.365,333.583 906.365,333.749 907.5,333C 915.676,328.412 924.009,324.078 932.5,320C 932.957,319.586 933.291,319.086 933.5,318.5C 930.978,316.353 930.978,314.353 933.5,312.5 Z"/></g>
<g><path style="opacity:1" fill="#eef1f5" d="M 153.5,314.5 C 153.56,313.957 153.893,313.624 154.5,313.5C 159.724,315.575 165.058,317.242 170.5,318.5C 170.553,321.061 169.553,323.061 167.5,324.5C 162.537,321.53 157.87,318.196 153.5,314.5 Z"/></g>
<g><path style="opacity:1" fill="#fafafc" d="M 383.5,330.5 C 431.392,334.957 479.392,337.457 527.5,338C 532.051,339.215 536.718,339.881 541.5,340C 549.036,341.567 551.536,346.067 549,353.5C 548.5,355.333 547.333,356.5 545.5,357C 536.5,357.667 527.5,357.667 518.5,357C 474.174,353.616 429.841,350.283 385.5,347C 379.905,344.646 378.072,340.479 380,334.5C 381.376,333.295 382.542,331.962 383.5,330.5 Z"/></g>
<g><path style="opacity:1" fill="#0a316b" d="M 137.5,334.5 C 142.644,335.119 143.644,337.452 140.5,341.5C 149.562,346.364 158.896,350.697 168.5,354.5C 169.833,353.167 171.167,351.833 172.5,350.5C 174.002,351.083 175.335,351.916 176.5,353C 174.311,357.879 171.978,362.712 169.5,367.5C 165.721,369.259 164.388,368.259 165.5,364.5C 160.935,362.634 156.435,360.634 152,358.5C 149.767,361.659 148.934,364.992 149.5,368.5C 153.063,370.115 156.73,371.448 160.5,372.5C 163.096,369.762 165.429,369.929 167.5,373C 165.753,378.937 163.253,384.437 160,389.5C 159.127,389.265 158.293,388.931 157.5,388.5C 156.9,386.424 156.567,384.424 156.5,382.5C 147.361,379.065 138.194,375.732 129,372.5C 126.843,373.385 126.01,375.052 126.5,377.5C 123.648,377.648 121.981,376.314 121.5,373.5C 123.302,368.095 125.302,362.761 127.5,357.5C 128.776,356.355 130.109,356.355 131.5,357.5C 132.244,358.991 132.91,360.491 133.5,362C 136.333,363.167 139.167,364.333 142,365.5C 143.957,363.168 145.457,360.501 146.5,357.5C 143.758,355.185 140.591,353.518 137,352.5C 134.476,355.069 131.976,355.069 129.5,352.5C 132.181,346.474 134.848,340.474 137.5,334.5 Z"/></g>
<g><path style="opacity:1" fill="#0d326c" d="M 946.5,335.5 C 948.686,336.823 950.186,338.823 951,341.5C 955.667,352.005 959.833,362.672 963.5,373.5C 958.441,374.464 953.607,376.131 949,378.5C 947.451,375.688 946.618,372.688 946.5,369.5C 950.325,369.406 953.325,367.906 955.5,365C 955.312,363.118 954.312,361.952 952.5,361.5C 943.133,364.9 933.8,368.4 924.5,372C 924.374,374.12 924.041,376.286 923.5,378.5C 922.264,379.246 920.93,379.579 919.5,379.5C 917.603,373.2 915.27,367.033 912.5,361C 915.676,357.339 917.676,357.839 918.5,362.5C 929.094,359.023 939.427,354.857 949.5,350C 948.833,348.667 948.167,347.333 947.5,346C 944.299,346.329 941.133,347.162 938,348.5C 935.8,347.133 934.3,345.133 933.5,342.5C 937.813,339.965 942.146,337.632 946.5,335.5 Z"/></g>
<g><path style="opacity:1" fill="#fcfcfd" d="M 611.5,344.5 C 614.85,344.335 618.183,344.502 621.5,345C 622.701,345.903 623.535,347.069 624,348.5C 622.536,370.796 621.203,393.129 620,415.5C 617.403,423.401 611.903,427.901 603.5,429C 600.167,429.667 596.833,429.667 593.5,429C 591.667,428.5 590.5,427.333 590,425.5C 588.149,405.143 588.482,384.809 591,364.5C 592.267,360.131 594.433,356.297 597.5,353C 602.064,349.89 606.731,347.056 611.5,344.5 Z"/></g>
<g><path style="opacity:1" fill="#0d326c" d="M 961.5,375.5 C 962.822,375.33 963.989,375.663 965,376.5C 967.04,382.285 968.873,388.119 970.5,394C 969.911,396.633 968.244,397.8 965.5,397.5C 965.688,395.897 965.188,394.563 964,393.5C 961.5,396.5 959,399.5 956.5,402.5C 960.375,403.759 964.209,405.092 968,406.5C 968.18,404.512 968.014,402.512 967.5,400.5C 969.331,399.948 970.997,399.948 972.5,400.5C 974.992,406.974 976.659,413.64 977.5,420.5C 975.856,420.286 974.356,420.62 973,421.5C 972.163,419.649 971.329,417.816 970.5,416C 963.69,413.756 956.857,411.589 950,409.5C 946.004,411.199 941.837,412.199 937.5,412.5C 937.833,414.5 938.167,416.5 938.5,418.5C 937.07,418.421 935.736,418.754 934.5,419.5C 931.876,413.131 929.543,406.631 927.5,400C 931.086,397.467 933.086,398.3 933.5,402.5C 938.225,401.649 942.892,400.482 947.5,399C 951.547,393.742 955.713,388.575 960,383.5C 960.576,381.623 960.409,379.789 959.5,378C 960.056,376.989 960.722,376.156 961.5,375.5 Z"/></g>
<g><path style="opacity:1" fill="#0b316b" d="M 124.5,386.5 C 134.617,385.233 143.451,387.9 151,394.5C 153.476,397.948 154.643,401.781 154.5,406C 153.07,413.886 151.403,421.719 149.5,429.5C 147.856,429.714 146.356,429.38 145,428.5C 144.505,426.527 144.338,424.527 144.5,422.5C 134.898,421.058 125.398,419.058 116,416.5C 113.496,417.151 112.163,418.818 112,421.5C 110.644,420.62 109.144,420.286 107.5,420.5C 108.827,410.517 111.994,401.184 117,392.5C 119.114,389.879 121.614,387.879 124.5,386.5 Z"/></g>
<g><path style="opacity:1" fill="#fcfdfd" d="M 487.5,386.5 C 501.815,384.435 513.648,388.768 523,399.5C 531.566,416.299 528.399,430.465 513.5,442C 500.284,448.319 487.284,447.986 474.5,441C 463.098,430.991 459.931,418.824 465,404.5C 470.048,395.271 477.548,389.271 487.5,386.5 Z"/></g>
<g><path style="opacity:1" fill="#f5f6f9" d="M 121.5,397.5 C 130.045,396.959 138.045,398.793 145.5,403C 148.029,405.642 149.029,408.808 148.5,412.5C 138.365,410.633 128.365,408.133 118.5,405C 118.043,404.586 117.709,404.086 117.5,403.5C 118.467,401.21 119.8,399.21 121.5,397.5 Z"/></g>
<g><path style="opacity:1" fill="#fafafc" d="M 174.5,425.5 C 182.507,426.89 190.507,428.39 198.5,430C 199.308,430.308 199.975,430.808 200.5,431.5C 191.903,450.792 183.403,470.125 175,489.5C 173.951,491.107 172.451,491.773 170.5,491.5C 171.675,469.485 173.009,447.485 174.5,425.5 Z"/></g>
<g><path style="opacity:1" fill="#fdfdfd" d="M 203.5,435.5 C 204.152,436.449 204.486,437.615 204.5,439C 202.603,479.472 201.603,519.972 201.5,560.5C 166.491,557.232 131.491,553.899 96.5,550.5C 96.09,533.812 96.09,517.145 96.5,500.5C 113.674,505.754 131.008,510.42 148.5,514.5C 148.575,511.794 148.908,509.127 149.5,506.5C 157.956,507.89 166.123,510.223 174,513.5C 178.819,489.043 186.819,465.71 198,443.5C 200.054,440.953 201.887,438.286 203.5,435.5 Z"/></g>
<g><path style="opacity:1" fill="#6881a5" d="M 886.5,436.5 C 884.469,436.972 882.802,437.972 881.5,439.5C 880.596,438.791 880.263,437.791 880.5,436.5C 882.5,436.5 884.5,436.5 886.5,436.5 Z"/></g>
<g><path style="opacity:1" fill="#fafbfc" d="M 913.5,437.5 C 915.167,437.5 916.833,437.5 918.5,437.5C 918.771,457.835 919.104,478.168 919.5,498.5C 918.178,498.67 917.011,498.337 916,497.5C 908.264,478.793 900.431,460.126 892.5,441.5C 899.595,439.969 906.595,438.635 913.5,437.5 Z"/></g>
<g><path style="opacity:1" fill="#f5f7f9" d="M 167.5,437.5 C 168.158,438.793 168.492,440.293 168.5,442C 166.117,462.43 165.117,482.93 165.5,503.5C 160.773,503.221 156.107,502.554 151.5,501.5C 155.433,479.842 160.766,458.508 167.5,437.5 Z"/></g>
<g><path style="opacity:1" fill="#07306a" d="M 104.5,444.5 C 112.052,444.018 116.886,447.351 119,454.5C 120.608,467.223 115.108,473.056 102.5,472C 94.6644,465.135 93.4977,457.301 99,448.5C 100.812,447.023 102.645,445.69 104.5,444.5 Z"/></g>
<g><path style="opacity:1" fill="#08306a" d="M 969.5,444.5 C 982.068,444.581 987.234,450.914 985,463.5C 981.665,471.919 975.832,474.419 967.5,471C 959.056,461.405 959.723,452.572 969.5,444.5 Z"/></g>
<g><path style="opacity:1" fill="#fcfcfd" d="M 987.5,507.5 C 988.833,507.5 990.167,507.5 991.5,507.5C 991.5,509.167 991.5,510.833 991.5,512.5C 990.103,527.137 989.103,541.804 988.5,556.5C 954.484,557.901 920.484,559.567 886.5,561.5C 887.607,522.842 888.441,484.176 889,445.5C 895.832,454.162 900.832,463.828 904,474.5C 908.891,488.856 912.391,503.523 914.5,518.5C 922.594,515.727 930.927,514.061 939.5,513.5C 939.5,514.833 939.5,516.167 939.5,517.5C 950.283,515.11 960.949,512.277 971.5,509C 976.822,508.316 982.156,507.816 987.5,507.5 Z"/></g>
<g><path style="opacity:1" fill="#9eaec5" d="M 210.5,446.5 C 210.198,449.059 210.532,451.393 211.5,453.5C 210.94,455.801 210.44,458.134 210,460.5C 209.185,455.648 209.352,450.981 210.5,446.5 Z"/></g>
<g><path style="opacity:1" fill="#f4f6f9" d="M 923.5,449.5 C 930.199,468.629 935.199,488.296 938.5,508.5C 933.483,509.503 928.483,509.503 923.5,508.5C 924.675,488.867 924.675,469.2 923.5,449.5 Z"/></g>
<g><path style="opacity:1" fill="#a0b0c6" d="M 882.5,452.5 C 883.66,464.66 883.827,476.993 883,489.5C 882.605,486.793 882.105,484.127 881.5,481.5C 882.494,472.014 882.827,462.348 882.5,452.5 Z"/></g>
<g><path style="opacity:1" fill="#fcfcfd" d="M 473.5,471.5 C 481.935,470.776 489.935,472.276 497.5,476C 500.04,478.205 502.207,480.705 504,483.5C 508.346,501.231 513.013,518.897 518,536.5C 520.085,546.414 516.085,551.747 506,552.5C 499.145,551.462 492.311,550.296 485.5,549C 467.151,548.726 448.818,548.059 430.5,547C 420.796,543.347 418.963,537.18 425,528.5C 436.074,514.022 446.407,499.022 456,483.5C 460.84,477.847 466.673,473.847 473.5,471.5 Z"/></g>
<g><path style="opacity:1" fill="#768eae" d="M 987.5,507.5 C 988.919,506.549 990.585,506.216 992.5,506.5C 992.795,508.735 992.461,510.735 991.5,512.5C 991.5,510.833 991.5,509.167 991.5,507.5C 990.167,507.5 988.833,507.5 987.5,507.5 Z"/></g>
<g><path style="opacity:1" fill="#fcfdfd" d="M 310.5,556.5 C 335.169,556.333 359.836,556.5 384.5,557C 377.667,564.5 370.833,572 364,579.5C 361.12,584.419 358.954,589.586 357.5,595C 356.167,595.667 354.833,596.333 353.5,597C 339.167,597.667 324.833,597.667 310.5,597C 303.348,594.844 299.515,590.01 299,582.5C 296.134,570.584 299.968,561.917 310.5,556.5 Z"/></g>
<g><path style="opacity:1" fill="#748bac" d="M 563.5,572.5 C 561.265,572.205 559.265,572.539 557.5,573.5C 556.957,573.44 556.624,573.107 556.5,572.5C 558.973,571.203 561.307,571.203 563.5,572.5 Z"/></g>
<g><path style="opacity:1" fill="#fcfcfd" d="M 563.5,572.5 C 605.513,576.244 647.513,580.077 689.5,584C 697.901,586.068 703.401,591.234 706,599.5C 706.333,604.5 706.667,609.5 707,614.5C 709.122,602.423 714.289,591.923 722.5,583C 726.048,581.059 729.714,579.393 733.5,578C 745.101,575.544 756.767,573.877 768.5,573C 769.416,573.374 770.25,573.874 771,574.5C 775.76,591.621 775.427,608.621 770,625.5C 768.421,627.041 766.587,628.208 764.5,629C 739.954,636.007 714.954,638.34 689.5,636C 657.03,632.987 624.697,628.987 592.5,624C 579.872,618.704 571.372,609.537 567,596.5C 563.729,588.85 560.563,581.183 557.5,573.5C 559.265,572.539 561.265,572.205 563.5,572.5 Z"/></g>
<g><path style="opacity:1" fill="#062f69" d="M 604.5,590.5 C 621.939,590.817 639.272,592.317 656.5,595C 659.057,595.685 660.891,597.185 662,599.5C 662.667,604.833 662.667,610.167 662,615.5C 661.5,617.333 660.333,618.5 658.5,619C 640.7,619.355 623.033,618.022 605.5,615C 598.821,609.611 596.988,602.778 600,594.5C 601.397,592.93 602.897,591.596 604.5,590.5 Z"/></g>
<g><path style="opacity:1" fill="#052f69" d="M 475.5,598.5 C 508.531,605.591 533.698,623.591 551,652.5C 567.18,682.412 571.846,714.079 565,747.5C 561.259,766.312 553.259,782.978 541,797.5C 538.192,801.778 536.526,806.444 536,811.5C 500.935,842.965 459.769,856.465 412.5,852C 403.686,851.383 395.019,850.049 386.5,848C 411.774,845.511 434.774,837.178 455.5,823C 472.255,810.333 481.922,793.499 484.5,772.5C 497.833,772.5 511.167,772.5 524.5,772.5C 516.947,795.228 502.614,812.395 481.5,824C 476.833,826 472.167,828 467.5,830C 450.925,834.747 434.592,840.081 418.5,846C 427.855,847.747 437.188,847.747 446.5,846C 458.97,841.066 471.636,836.732 484.5,833C 507.701,823.462 523.868,806.962 533,783.5C 551.148,728.863 543.481,678.197 510,631.5C 505.2,625.698 500.033,620.198 494.5,615C 487.633,609.957 481.3,604.457 475.5,598.5 Z"/></g>
<g><path style="opacity:1" fill="#022e68" d="M 366.5,611.5 C 389.854,609.675 410.521,616.175 428.5,631C 454.063,652.62 470.563,679.786 478,712.5C 481.429,735.997 479.429,758.997 472,781.5C 465.925,798.576 455.092,811.742 439.5,821C 411.431,837.232 381.431,842.899 349.5,838C 302.282,822.431 274.782,789.931 267,740.5C 266.667,730.833 266.333,721.167 266,711.5C 264.853,714.618 263.52,717.618 262,720.5C 256.652,676.025 274.485,644.859 315.5,627C 332.685,622.102 349.685,616.935 366.5,611.5 Z"/></g>
<g><path style="opacity:1" fill="#032e69" d="M 471.5,611.5 C 482.374,619.689 492.541,628.689 502,638.5C 511.311,652.456 518.478,667.456 523.5,683.5C 523.264,687.571 521.264,690.404 517.5,692C 505.751,693.403 494.084,695.236 482.5,697.5C 477.724,678.616 469.224,661.616 457,646.5C 452.351,641.017 447.518,635.684 442.5,630.5C 452.024,623.908 461.691,617.574 471.5,611.5 Z"/></g>
<g><path style="opacity:1" fill="#fcfcfd" d="M 592.5,637.5 C 626.572,640.522 660.572,644.355 694.5,649C 701.836,651.168 704.336,656.001 702,663.5C 701.55,665.519 700.717,667.352 699.5,669C 695.952,670.089 692.285,670.589 688.5,670.5C 660.783,668.568 633.116,666.068 605.5,663C 593.231,661.415 587.731,654.581 589,642.5C 589.997,640.677 591.164,639.01 592.5,637.5 Z"/></g>
<g><path style="opacity:1" fill="#f6f7f9" d="M 339.5,642.5 C 371.786,644.394 395.952,659.394 412,687.5C 429.486,718.984 432.153,751.651 420,785.5C 406.057,813.555 383.557,824.721 352.5,819C 318.056,806.887 296.556,783.054 288,747.5C 279.268,719.219 282.602,692.552 298,667.5C 308.472,653.357 322.305,645.024 339.5,642.5 Z"/></g>
<g><path style="opacity:1" fill="#032e69" d="M 336.5,653.5 C 353.63,652.113 368.963,656.613 382.5,667C 415.427,696.199 425.927,732.033 414,774.5C 402.567,801.97 382.067,813.47 352.5,809C 344.109,806.305 336.442,802.305 329.5,797C 294.496,766.652 284.33,729.486 299,685.5C 306.212,668.442 318.712,657.776 336.5,653.5 Z"/></g>
<g><path style="opacity:1" fill="#042f69" d="M 140.5,659.5 C 158.312,658.378 172.812,664.711 184,678.5C 202.393,706.605 222.726,733.272 245,758.5C 264.555,778.72 284.055,798.887 303.5,819C 312.998,826.588 323.331,832.921 334.5,838C 462.491,925.641 594.157,931.308 729.5,855C 799.025,811.144 857.192,755.311 904,687.5C 916.349,673.495 931.183,669.995 948.5,677C 966.998,689.17 974.831,706.337 972,728.5C 971.174,733.964 969.841,739.297 968,744.5C 950.774,778.969 929.107,810.302 903,838.5C 857.25,890.946 804.417,934.446 744.5,969C 591.973,1049.24 444.639,1040.91 302.5,944C 238.124,897.292 183.624,841.126 139,775.5C 125.669,754.836 115.002,732.836 107,709.5C 104.901,683.792 116.068,667.125 140.5,659.5 Z"/></g>
<g><path style="opacity:1" fill="#fcfcfd" d="M 355.5,674.5 C 368.739,674.202 379.572,679.202 388,689.5C 397.335,702.173 404.002,716.173 408,731.5C 411.046,751.567 404.546,767.733 388.5,780C 370.878,787.692 356.045,783.859 344,768.5C 332.446,749.396 327.779,728.729 330,706.5C 332.876,691.146 341.376,680.48 355.5,674.5 Z"/></g>
<g><path style="opacity:1" fill="#fafbfc" d="M 143.5,691.5 C 156.657,691.102 161.824,697.436 159,710.5C 155.954,718.609 150.454,721.109 142.5,718C 136.739,712.763 134.905,706.263 137,698.5C 138.694,695.642 140.861,693.309 143.5,691.5 Z"/></g>
<g><path style="opacity:1" fill="#012d68" d="M 526.5,767.5 C 512.791,768.148 499.458,767.481 486.5,765.5C 489.247,744.769 489.08,724.102 486,703.5C 496.255,701.624 506.588,699.958 517,698.5C 522.385,697.991 526.385,699.991 529,704.5C 529.667,721.167 529.667,737.833 529,754.5C 528.735,758.968 527.901,763.302 526.5,767.5 Z"/></g>
<g><path style="opacity:1" fill="#fbfcfc" d="M 707.5,707.5 C 709.167,707.5 710.833,707.5 712.5,707.5C 716.259,731.011 718.425,754.678 719,778.5C 721.147,779.476 723.314,779.309 725.5,778C 737.637,771.929 749.97,766.429 762.5,761.5C 765.325,761.119 767.491,762.119 769,764.5C 769.667,771.167 769.667,777.833 769,784.5C 767.604,788.792 765.104,792.292 761.5,795C 736.351,813.621 708.351,820.621 677.5,816C 644.865,809.54 612.198,803.206 579.5,797C 574.577,795.416 571.91,792.082 571.5,787C 572.222,780.602 574.388,774.769 578,769.5C 580.906,766.631 584.406,765.298 588.5,765.5C 622.907,770.901 657.24,776.734 691.5,783C 695.5,783.667 699.5,783.667 703.5,783C 705.768,781.442 706.934,779.276 707,776.5C 707.5,753.502 707.667,730.502 707.5,707.5 Z"/></g>
<g><path style="opacity:1" fill="#f9fafb" d="M 928.5,708.5 C 942.172,709.14 947.006,716.14 943,729.5C 939.23,736.414 933.73,738.247 926.5,735C 919.989,728.749 918.823,721.582 923,713.5C 924.73,711.598 926.563,709.931 928.5,708.5 Z"/></g>
<g><path style="opacity:1" fill="#0d326c" d="M 340.5,712.5 C 343.281,720.935 345.781,729.602 348,738.5C 358.49,760.325 374.323,765.325 395.5,753.5C 395.833,753.833 396.167,754.167 396.5,754.5C 388.101,772.023 375.101,776.523 357.5,768C 352.898,763.963 349.398,759.129 347,753.5C 344.667,746.5 342.333,739.5 340,732.5C 339.244,725.783 339.411,719.117 340.5,712.5 Z"/></g>
<g><path style="opacity:1" fill="#f9fafb" d="M 194.5,721.5 C 196.017,721.511 197.184,722.177 198,723.5C 203.989,732.518 209.655,741.518 215,750.5C 210.262,754.241 205.262,757.574 200,760.5C 193.861,757.483 193.361,753.983 198.5,750C 197.174,747.842 195.507,746.008 193.5,744.5C 191.201,745.635 189.034,746.968 187,748.5C 187.222,750.456 188.055,752.29 189.5,754C 186.597,756.572 183.431,758.739 180,760.5C 178.726,759.465 177.56,758.298 176.5,757C 173.321,757.602 170.655,759.268 168.5,762C 168.759,763.261 169.426,764.261 170.5,765C 166.89,766.944 163.557,769.277 160.5,772C 159.5,772.667 158.5,772.667 157.5,772C 154.456,767.412 151.29,762.912 148,758.5C 147.018,757.241 146.685,755.908 147,754.5C 150.586,752.291 154.086,749.957 157.5,747.5C 159.319,749.911 161.319,750.078 163.5,748C 170.864,742.657 178.197,737.324 185.5,732C 184.813,730.838 184.647,729.672 185,728.5C 188.501,726.512 191.668,724.178 194.5,721.5 Z"/></g>
<g><path style="opacity:1" fill="#fafbfc" d="M 885.5,741.5 C 897.031,741.663 903.865,747.329 906,758.5C 916.967,756.317 924.967,760.317 930,770.5C 930.823,774.738 930.156,778.738 928,782.5C 923.026,789.641 917.86,796.641 912.5,803.5C 908.73,801.197 905.23,798.531 902,795.5C 901.383,794.551 901.549,793.718 902.5,793C 894.307,786.641 885.974,780.474 877.5,774.5C 876.522,774.977 875.689,775.643 875,776.5C 871.078,773.789 867.244,770.955 863.5,768C 869.789,758.226 877.123,749.392 885.5,741.5 Z"/></g>
<g><path style="opacity:1" fill="#f9fafb" d="M 215.5,752.5 C 217.39,752.297 218.89,752.963 220,754.5C 222.615,758.783 225.615,762.783 229,766.5C 229.667,767.167 229.667,767.833 229,768.5C 225.642,771.358 222.142,774.025 218.5,776.5C 217.522,776.023 216.689,775.357 216,774.5C 207.666,780.673 199.5,787.006 191.5,793.5C 192.326,794.451 192.492,795.451 192,796.5C 188.642,799.358 185.142,802.025 181.5,804.5C 176.609,799.333 172.775,793.666 170,787.5C 173.59,784.955 177.09,782.288 180.5,779.5C 181.532,781.04 182.865,781.54 184.5,781C 192.572,775.303 200.238,769.136 207.5,762.5C 206.674,761.549 206.508,760.549 207,759.5C 210.023,757.302 212.856,754.969 215.5,752.5 Z"/></g>
<g><path style="opacity:1" fill="#14376f" d="M 887.5,757.5 C 896.169,758.255 898.002,761.921 893,768.5C 889.897,766.697 887.063,764.53 884.5,762C 885.386,760.385 886.386,758.885 887.5,757.5 Z"/></g>
<g><path style="opacity:1" fill="#8298b5" d="M 486.5,765.5 C 499.458,767.481 512.791,768.148 526.5,767.5C 513.01,768.496 499.344,768.829 485.5,768.5C 485.263,767.209 485.596,766.209 486.5,765.5 Z"/></g>
<g><path style="opacity:1" fill="#0d336c" d="M 905.5,770.5 C 913.807,770.28 916.14,773.78 912.5,781C 908.953,780.184 905.786,778.35 903,775.5C 903.058,773.565 903.891,771.898 905.5,770.5 Z"/></g>
<g><path style="opacity:1" fill="#f8fafb" d="M 861.5,770.5 C 865.103,772.763 868.436,775.43 871.5,778.5C 872.096,779.716 872.263,781.049 872,782.5C 881.32,789.821 889.986,797.821 898,806.5C 902.427,814.702 900.927,821.535 893.5,827C 887.042,829.191 881.042,828.191 875.5,824C 867.943,817.438 860.109,811.272 852,805.5C 851.228,805.645 850.561,805.978 850,806.5C 846.353,803.687 842.853,800.687 839.5,797.5C 843.144,792.688 846.978,788.021 851,783.5C 859.48,792.643 868.647,801.143 878.5,809C 880.5,810.333 882.5,811.667 884.5,813C 888.088,813.611 889.254,812.111 888,808.5C 880.258,800.071 871.424,793.237 861.5,788C 859.295,785.46 856.795,783.293 854,781.5C 853.333,780.833 853.333,780.167 854,779.5C 856.335,776.335 858.835,773.335 861.5,770.5 Z"/></g>
<g><path style="opacity:1" fill="#f9fafc" d="M 230.5,771.5 C 235.773,775.778 240.439,780.778 244.5,786.5C 241.149,789.848 237.482,792.848 233.5,795.5C 232.522,795.023 231.689,794.357 231,793.5C 223.073,800.215 215.24,807.049 207.5,814C 209.355,815.855 211.188,817.688 213,819.5C 215.298,818.039 217.465,816.372 219.5,814.5C 221.705,815.871 223.372,817.704 224.5,820C 219.346,825.651 213.679,830.817 207.5,835.5C 199.822,827.32 192.489,818.82 185.5,810C 188.688,807.568 191.688,804.901 194.5,802C 195.899,801.405 197.232,801.572 198.5,802.5C 206.645,796.189 214.645,789.689 222.5,783C 221.643,782.311 220.977,781.478 220.5,780.5C 223.906,777.483 227.24,774.483 230.5,771.5 Z"/></g>
<g><path style="opacity:1" fill="#143770" d="M 763.5,780.5 C 764.097,780.735 764.43,781.235 764.5,782C 763.038,786.474 760.371,790.14 756.5,793C 749.578,797.794 742.245,801.461 734.5,804C 744.603,796.627 754.27,788.794 763.5,780.5 Z"/></g>
<g><path style="opacity:1" fill="#fafbfc" d="M 253.5,799.5 C 259.422,803.751 264.755,808.751 269.5,814.5C 266.249,820.004 262.749,825.338 259,830.5C 258.312,831.332 258.479,831.998 259.5,832.5C 265.418,828.958 271.251,825.292 277,821.5C 282.167,826.667 287.333,831.833 292.5,837C 288.701,839.797 285.201,842.964 282,846.5C 280.951,845.483 279.784,845.316 278.5,846C 271.5,853 264.5,860 257.5,867C 258.167,867.667 258.833,868.333 259.5,869C 256,872.5 252.5,876 249,879.5C 245,875.5 241,871.5 237,867.5C 236.333,866.833 236.333,866.167 237,865.5C 239.833,862.667 242.667,859.833 245.5,857C 246.833,857 248.167,857 249.5,857C 256.53,849.635 263.864,842.635 271.5,836C 270.833,835.333 270.167,835.333 269.5,836C 256.633,844.364 243.633,852.531 230.5,860.5C 229.019,859.52 227.685,858.353 226.5,857C 234.781,844.566 242.614,832.066 250,819.5C 242.864,825.635 236.031,832.135 229.5,839C 230.167,839.667 230.833,840.333 231.5,841C 228.5,844 225.5,847 222.5,850C 221.5,850.667 220.5,850.667 219.5,850C 216.65,847.318 213.984,844.484 211.5,841.5C 215.151,838.349 218.651,835.016 222,831.5C 223.049,832.517 224.216,832.684 225.5,832C 232.5,825 239.5,818 246.5,811C 245.833,810.333 245.167,809.667 244.5,809C 247.704,805.964 250.704,802.797 253.5,799.5 Z"/></g>
<g><path style="opacity:1" fill="#f9fafc" d="M 827.5,809.5 C 831.402,811.893 834.902,814.893 838,818.5C 838,819.833 838,821.167 838,822.5C 844.531,829.365 851.364,835.865 858.5,842C 861.301,841.552 863.301,839.885 864.5,837C 862.339,835.004 860.339,832.838 858.5,830.5C 860.149,828.35 861.982,826.35 864,824.5C 870.135,829.634 875.969,835.134 881.5,841C 874.031,849.47 866.198,857.637 858,865.5C 855,862.5 852,859.5 849,856.5C 849,855.167 849,853.833 849,852.5C 841.97,845.135 834.636,838.135 827,831.5C 826.333,832.167 825.667,832.833 825,833.5C 821.217,830.684 817.717,827.517 814.5,824C 818.67,818.998 823.004,814.164 827.5,809.5 Z"/></g>
<g><path style="opacity:1" fill="#788fae" d="M 356.5,815.5 C 361.015,814.188 365.682,814.188 370.5,815.5C 365.88,816.18 361.213,816.18 356.5,815.5 Z"/></g>
<g><path style="opacity:1" fill="#f9fafb" d="M 810.5,826.5 C 815.634,831.805 820.634,837.305 825.5,843C 823.65,845.018 821.65,846.851 819.5,848.5C 806.882,843.633 804.382,846.966 812,858.5C 816.532,863.367 821.366,867.867 826.5,872C 828.441,872.743 830.274,872.576 832,871.5C 832.933,866.349 831.766,861.682 828.5,857.5C 831.714,856.023 835.047,855.523 838.5,856C 845.291,863.325 846.791,871.492 843,880.5C 835.505,888.372 827.005,889.538 817.5,884C 805.631,876.798 797.464,866.632 793,853.5C 790.415,842.086 794.915,835.586 806.5,834C 805.549,833.282 805.383,832.449 806,831.5C 807.707,829.963 809.207,828.296 810.5,826.5 Z"/></g>
<g><path style="opacity:1" fill="#0a316b" d="M 428.5,858.5 C 432.833,857.833 437.167,857.167 441.5,856.5C 448.061,856.382 454.561,855.715 461,854.5C 518.278,868.251 575.445,867.751 632.5,853C 648.367,847.989 664.033,842.489 679.5,836.5C 686.384,838.314 693.384,839.481 700.5,840C 612.399,883.936 521.732,890.102 428.5,858.5 Z"/></g>
<g><path style="opacity:1" fill="#a9b8cc" d="M 441.5,856.5 C 437.167,857.167 432.833,857.833 428.5,858.5C 427.244,858.539 426.244,858.039 425.5,857C 430.823,856.501 436.156,856.334 441.5,856.5 Z"/></g>
<g><path style="opacity:1" fill="#f9fafc" d="M 288.5,909.5 C 289.404,908.791 289.737,907.791 289.5,906.5C 286.833,906.5 284.167,906.5 281.5,906.5C 273.399,903.631 270.565,897.965 273,889.5C 277.83,877.49 286.663,871.823 299.5,872.5C 300.85,866.986 303.85,862.486 308.5,859C 315.642,855.925 321.309,857.592 325.5,864C 323.76,867.578 321.427,870.744 318.5,873.5C 315.755,872.025 313.588,872.691 312,875.5C 310.174,879.426 309.674,883.426 310.5,887.5C 313.768,885.619 316.934,883.619 320,881.5C 322.898,882.563 325.398,884.23 327.5,886.5C 324.621,890.424 321.621,894.257 318.5,898C 313.952,896.456 309.785,897.623 306,901.5C 305.021,905.23 306.187,908.064 309.5,910C 306.333,913.833 303.167,917.667 300,921.5C 296.333,918.5 292.667,915.5 289,912.5C 288.517,911.552 288.351,910.552 288.5,909.5 Z"/></g>
<g><path style="opacity:1" fill="#f8fafb" d="M 770.5,861.5 C 772.017,861.511 773.184,862.177 774,863.5C 776.167,866.5 778.333,869.5 780.5,872.5C 779.689,873.216 779.022,874.05 778.5,875C 780.565,882.426 782.398,889.926 784,897.5C 785.763,900.02 787.763,902.353 790,904.5C 791.587,903.273 792.921,903.606 794,905.5C 795.796,908.927 797.963,912.094 800.5,915C 795.333,918.833 790.167,922.667 785,926.5C 781.781,922.948 778.948,919.115 776.5,915C 777.167,914.333 777.833,913.667 778.5,913C 777,910.833 775.5,908.667 774,906.5C 767,901.833 760,897.167 753,892.5C 752.282,893.451 751.449,893.617 750.5,893C 747.642,889.642 744.975,886.142 742.5,882.5C 747.322,878.589 752.322,874.922 757.5,871.5C 759.808,874.975 762.308,878.308 765,881.5C 765.617,882.449 765.451,883.282 764.5,884C 767.5,886.5 770.5,889 773.5,891.5C 773.833,891.167 774.167,890.833 774.5,890.5C 773.346,887.548 772.346,884.548 771.5,881.5C 767.231,878.303 763.897,874.303 761.5,869.5C 764.344,866.591 767.344,863.924 770.5,861.5 Z"/></g>
<g><path style="opacity:1" fill="#14366f" d="M 292.5,882.5 C 293.675,882.281 294.675,882.614 295.5,883.5C 294.234,887.465 293.067,891.465 292,895.5C 290.164,897.604 287.998,897.938 285.5,896.5C 284.594,890.312 286.927,885.645 292.5,882.5 Z"/></g>
<g><path style="opacity:1" fill="#fafafc" d="M 350.5,883.5 C 353.016,883.755 355.35,884.589 357.5,886C 362.334,889.252 367.334,892.252 372.5,895C 378.711,898.92 380.877,904.42 379,911.5C 376.763,919.17 372.263,925.003 365.5,929C 362.5,929.667 359.5,929.667 356.5,929C 353.281,927.045 349.947,925.712 346.5,925C 345.167,927 343.833,929 342.5,931C 343.91,931.368 344.91,932.201 345.5,933.5C 343.25,937.668 340.75,941.668 338,945.5C 332.251,941.708 326.418,938.042 320.5,934.5C 322.667,930.833 324.833,927.167 327,923.5C 328.32,923.201 329.82,923.034 331.5,923C 336.626,914.582 341.626,906.082 346.5,897.5C 345.833,896.5 345.167,895.5 344.5,894.5C 346.528,890.816 348.528,887.15 350.5,883.5 Z"/></g>
<g><path style="opacity:1" fill="#f9fafb" d="M 739.5,883.5 C 744.485,887.796 746.985,893.13 747,899.5C 751.7,907.372 756.2,915.372 760.5,923.5C 761.833,923.833 763.167,924.167 764.5,924.5C 766.633,927.935 768.633,931.435 770.5,935C 765.663,938.81 760.497,942.31 755,945.5C 750.245,939.347 747.245,932.68 746,925.5C 745.163,923.993 743.996,923.493 742.5,924C 740.833,925.167 739.167,926.333 737.5,927.5C 739.086,929.67 740.42,932.004 741.5,934.5C 742.698,934.94 743.865,935.273 745,935.5C 747.167,939.167 749.333,942.833 751.5,946.5C 746.539,950.32 741.206,953.653 735.5,956.5C 733.167,952.5 730.833,948.5 728.5,944.5C 729.245,940.924 728.411,937.59 726,934.5C 722.25,927.998 718.25,921.665 714,915.5C 713.586,915.957 713.086,916.291 712.5,916.5C 709.662,912.828 707.329,908.828 705.5,904.5C 710.375,900.806 715.542,897.473 721,894.5C 723.374,898.75 725.874,902.916 728.5,907C 727.536,909.647 728.036,912.147 730,914.5C 737.688,914.938 739.188,911.938 734.5,905.5C 733.609,904.41 732.609,904.41 731.5,905.5C 729.176,901.506 726.843,897.506 724.5,893.5C 729.357,889.908 734.357,886.575 739.5,883.5 Z"/></g>
<g><path style="opacity:1" fill="#11356e" d="M 358.5,903.5 C 364.214,904.383 365.714,907.383 363,912.5C 359.891,916.459 357.057,916.293 354.5,912C 355.711,909.08 357.044,906.247 358.5,903.5 Z"/></g>
<g><path style="opacity:1" fill="#fafafc" d="M 386.5,904.5 C 391.998,906.168 397.331,908.335 402.5,911C 403.022,911.561 403.355,912.228 403.5,913C 401.862,916.442 400.362,919.942 399,923.5C 395.237,925.368 393.237,928.368 393,932.5C 395.393,934.367 397.893,935.034 400.5,934.5C 402.735,931.005 403.568,927.338 403,923.5C 404.074,919.681 405.907,916.348 408.5,913.5C 414.112,915.639 419.446,918.306 424.5,921.5C 423.027,925.251 421.36,928.917 419.5,932.5C 418.311,933.429 416.978,933.762 415.5,933.5C 412.069,943.033 408.069,952.367 403.5,961.5C 405.579,963.157 405.746,965.157 404,967.5C 402.822,970.533 401.156,973.199 399,975.5C 394.443,973.805 389.943,971.972 385.5,970C 384.426,969.261 383.759,968.261 383.5,967C 385.138,963.558 386.638,960.058 388,956.5C 391.605,954.654 393.772,951.654 394.5,947.5C 388.542,942.803 384.875,944.303 383.5,952C 383.905,952.945 384.572,953.612 385.5,954C 383.229,957.876 381.229,961.876 379.5,966C 373.381,964.609 367.715,962.109 362.5,958.5C 364.353,954.952 366.019,951.285 367.5,947.5C 368.833,946.833 370.167,946.167 371.5,945.5C 375.242,936.352 379.242,927.352 383.5,918.5C 382.833,917.833 382.167,917.167 381.5,916.5C 383.182,912.474 384.848,908.474 386.5,904.5 Z"/></g>
<g><path style="opacity:1" fill="#94a5bf" d="M 281.5,906.5 C 284.167,906.5 286.833,906.5 289.5,906.5C 289.737,907.791 289.404,908.791 288.5,909.5C 286.492,907.917 284.159,906.917 281.5,906.5 Z"/></g>
<g><path style="opacity:1" fill="#fafbfc" d="M 689.5,910.5 C 693.967,910.133 698.3,910.633 702.5,912C 711.958,919.698 714.792,929.198 711,940.5C 707.09,944.208 702.59,947.042 697.5,949C 698.627,950.753 699.627,952.587 700.5,954.5C 701.991,955.244 703.491,955.91 705,956.5C 706.833,960.167 708.667,963.833 710.5,967.5C 704.038,971.066 697.371,974.066 690.5,976.5C 689.432,971.967 687.766,967.634 685.5,963.5C 686.5,962.833 687.5,962.167 688.5,961.5C 684.5,952.5 680.5,943.5 676.5,934.5C 675.349,933.269 674.183,933.269 673,934.5C 670.778,930.499 668.945,926.333 667.5,922C 674.702,917.88 682.035,914.047 689.5,910.5 Z"/></g>
<g><path style="opacity:1" fill="#f8f9fa" d="M 656.5,923.5 C 657.822,923.33 658.989,923.663 660,924.5C 661.268,928.136 662.434,931.803 663.5,935.5C 663.471,937.029 662.804,938.196 661.5,939C 666.753,947.503 671.753,956.17 676.5,965C 677.793,965.49 679.127,965.657 680.5,965.5C 681.083,969.586 682.083,973.586 683.5,977.5C 683.167,978.167 682.833,978.833 682.5,979.5C 676.992,981.781 671.325,983.448 665.5,984.5C 665.018,980.551 664.018,976.717 662.5,973C 663.167,972 663.833,971 664.5,970C 663.144,968.433 662.477,966.6 662.5,964.5C 659.5,965.167 656.5,965.833 653.5,966.5C 653.5,969.167 653.5,971.833 653.5,974.5C 654.833,974.5 656.167,974.5 657.5,974.5C 658.293,978.88 659.293,983.214 660.5,987.5C 655.839,988.497 651.173,989.497 646.5,990.5C 645.167,985.833 643.833,981.167 642.5,976.5C 643.5,976.5 644.5,976.5 645.5,976.5C 644.171,965.867 643.171,955.2 642.5,944.5C 641.178,944.67 640.011,944.337 639,943.5C 637.911,939.644 636.744,935.81 635.5,932C 635.905,931.055 636.572,930.388 637.5,930C 644.107,928.299 650.44,926.132 656.5,923.5 Z"/></g>
<g><path style="opacity:1" fill="#14366f" d="M 690.5,924.5 C 696.74,924.294 699.24,927.294 698,933.5C 696.559,934.87 694.892,935.87 693,936.5C 689.412,932.692 688.578,928.692 690.5,924.5 Z"/></g>
<g><path style="opacity:1" fill="#fbfbfc" d="M 436.5,926.5 C 451.866,924.7 459.533,931.533 459.5,947C 459.623,961.748 454.29,974.082 443.5,984C 431.226,990.775 422.726,987.608 418,974.5C 414.455,954.619 420.622,938.619 436.5,926.5 Z"/></g>
<g><path style="opacity:1" fill="#f8f9fb" d="M 466.5,934.5 C 478.272,936.194 489.939,938.361 501.5,941C 499.36,949.005 498.027,957.171 497.5,965.5C 495.409,965.682 493.409,965.348 491.5,964.5C 490.713,960.855 490.546,957.188 491,953.5C 489.989,952.663 488.822,952.33 487.5,952.5C 486.213,962.057 484.546,971.557 482.5,981C 482.969,982.887 483.969,984.387 485.5,985.5C 484.026,989.731 483.026,994.064 482.5,998.5C 476.139,997.95 469.972,996.617 464,994.5C 463.482,990.449 463.816,986.449 465,982.5C 465.991,981.061 467.324,980.061 469,979.5C 470.518,969.747 472.351,960.08 474.5,950.5C 473.167,949.167 471.833,949.167 470.5,950.5C 469.878,953.37 469.211,956.204 468.5,959C 466.527,959.495 464.527,959.662 462.5,959.5C 463.09,951.036 464.423,942.703 466.5,934.5 Z"/></g>
<g><path style="opacity:1" fill="#f9fafb" d="M 609.5,936.5 C 622.834,935.328 629.834,941.494 630.5,955C 629.899,959.542 629.399,964.042 629,968.5C 630.92,971.339 632.587,974.339 634,977.5C 635.333,978.167 636.667,978.833 638,979.5C 639.029,984.144 639.862,988.81 640.5,993.5C 636.356,993.33 632.356,993.997 628.5,995.5C 624.08,988.329 619.914,980.996 616,973.5C 614.644,972.62 613.144,972.286 611.5,972.5C 611.833,975.833 612.167,979.167 612.5,982.5C 613.5,982.5 614.5,982.5 615.5,982.5C 616.903,987.391 617.57,992.391 617.5,997.5C 611.102,998.113 604.769,999.113 598.5,1000.5C 598.732,996.02 598.065,991.687 596.5,987.5C 597.737,986.719 598.737,985.719 599.5,984.5C 597.66,974.807 595.66,965.14 593.5,955.5C 592.5,955.5 591.5,955.5 590.5,955.5C 589.508,950.548 588.842,945.548 588.5,940.5C 595.657,939.401 602.657,938.068 609.5,936.5 Z"/></g>
<g><path style="opacity:1" fill="#11346d" d="M 440.5,940.5 C 442.144,940.286 443.644,940.62 445,941.5C 444.538,952.008 441.872,962.008 437,971.5C 435,974.167 433,974.167 431,971.5C 431.234,960.223 434.4,949.89 440.5,940.5 Z"/></g>
<g><path style="opacity:1" fill="#fafbfc" d="M 517.5,940.5 C 529.056,939.885 536.223,945.218 539,956.5C 543.139,973.26 539.639,988.094 528.5,1001C 519.683,1005.54 512.183,1004.04 506,996.5C 499.417,982.837 498.75,968.837 504,954.5C 507.359,948.643 511.859,943.976 517.5,940.5 Z"/></g>
<g><path style="opacity:1" fill="#f9fafb" d="M 574.5,986.5 C 575.451,985.081 575.784,983.415 575.5,981.5C 574.167,981.5 572.833,981.5 571.5,981.5C 571.5,977.833 571.5,974.167 571.5,970.5C 576.527,970.497 581.527,970.164 586.5,969.5C 586.666,976.175 586.5,982.842 586,989.5C 584.292,994.412 581.458,998.579 577.5,1002C 564.795,1006.06 555.962,1001.9 551,989.5C 545.73,975.492 546.397,961.825 553,948.5C 559.428,940.416 566.762,939.416 575,945.5C 575.49,944.207 575.657,942.873 575.5,941.5C 578.5,941.5 581.5,941.5 584.5,941.5C 584.5,948.5 584.5,955.5 584.5,962.5C 581.5,962.5 578.5,962.5 575.5,962.5C 574.61,957.447 571.61,955.28 566.5,956C 565.299,956.903 564.465,958.069 564,959.5C 563.333,966.5 563.333,973.5 564,980.5C 563.954,985.438 566.121,988.771 570.5,990.5C 572.848,990.152 574.182,988.818 574.5,986.5 Z"/></g>
<g><path style="opacity:1" fill="#1b3b72" d="M 650.5,944.5 C 653.311,948.109 655.645,952.109 657.5,956.5C 656.061,958.553 654.061,959.553 651.5,959.5C 651.497,954.473 651.164,949.473 650.5,944.5 Z"/></g>
<g><path style="opacity:1" fill="#11346d" d="M 607.5,950.5 C 613.051,949.007 616.051,951.007 616.5,956.5C 615.823,960.993 613.156,962.66 608.5,961.5C 607.886,957.865 607.552,954.198 607.5,950.5 Z"/></g>
<g><path style="opacity:1" fill="#11346d" d="M 519.5,955.5 C 521.144,955.286 522.644,955.62 524,956.5C 525.758,965.104 525.758,973.771 524,982.5C 523.539,985.775 521.873,988.109 519,989.5C 517.523,988.556 516.523,987.223 516,985.5C 514.694,975.146 515.86,965.146 519.5,955.5 Z"/></g>
<g><path style="opacity:1" fill="#879bb8" d="M 571.5,981.5 C 572.833,981.5 574.167,981.5 575.5,981.5C 575.784,983.415 575.451,985.081 574.5,986.5C 574.5,985.167 574.5,983.833 574.5,982.5C 573.209,982.737 572.209,982.404 571.5,981.5 Z"/></g>
</svg>
